<?xml version="1.0" encoding="UTF-8"?>
<svg viewBox="0 0 724.80804 731.34509" xmlns="http://www.w3.org/2000/svg">
 <defs>
  <clipPath id="c">
   <path d="m299.26 386.87c-59.927 0.19242-118.15 33.338-149.43 84.528-29.587 47.381-34.943 109.53-13.359 161.15 20.457 50.286 64.824 90.128 117.24 104.35 52.87 14.818 112.47 3.7396 155.86-29.943 43.391-32.827 70.497-86.457 70.265-141.19 0.44242-54.482-25.675-108.28-68.957-141.47-31.641-24.552-71.517-38.129-111.62-37.418zm1.8166 106.99c32.484-0.70821 63.264 23.601 69.963 55.43 6.8987 29.342-6.8831 62.048-33.025 77.065-25.348 15.319-60.217 12.718-82.544-6.863-20.668-17.356-30.166-47.046-22.731-73.19 8.1493-30.116 36.926-52.731 68.337-52.442z"/>
  </clipPath>
  <clipPath id="b">
   <path d="m263.33 41.974c-85.216 0.27362-168.01 47.406-212.49 120.2-42.072 67.375-49.688 155.75-18.996 229.15 29.09 71.506 92.179 128.16 166.71 148.38 75.18 21.071 159.93 5.3177 221.64-42.579 61.701-46.679 100.25-122.94 99.915-200.77 0.62911-77.472-36.51-153.97-98.056-201.17-44.993-34.913-101.7-54.219-158.72-53.208zm2.5832 152.14c46.192-1.0071 89.961 33.56 99.486 78.821 9.8098 41.725-9.7877 88.232-46.961 109.58-36.044 21.783-85.627 18.084-117.38-9.7591-29.39-24.681-42.896-66.899-32.324-104.07 11.588-42.825 52.508-74.983 97.175-74.572z"/>
  </clipPath>
  <clipPath id="a">
   <path d="m713.37 615.95c0 204.69-163.07 370.62-364.22 370.62s-364.22-165.93-364.22-370.62 163.07-370.62 364.22-370.62 364.22 165.93 364.22 370.62z"/>
  </clipPath>
 </defs>
 <g transform="matrix(.96971 0 0 .96105 19.667 -228.23)">
  <g clip-path="url(#a)">
   <path d="m355.7 255.23c-202.77 0-367.14 164.38-367.14 367.14s164.38 367.14 367.14 367.14 367.14-164.38 367.14-367.14-164.38-367.14-367.14-367.14zm0 299.19c37.519 0 67.955 30.436 67.955 67.955s-30.436 67.931-67.955 67.931-67.931-30.412-67.931-67.931 30.412-67.955 67.931-67.955z" fill="#040404"/>
   <path d="m355.41 281.19c-124.71-1.0814-246.44 72.798-302.64 183.88-49.81 95.16-51.352 214.92-2.0158 310.54 41.127 82.132 116.61 146.62 204.79 173.05 85.337 26.316 181.46 17.734 259.99-24.776 73.008-38.478 131.09-104.26 159.77-181.72 30.106-79.895 29.066-171.78-4.4097-250.64-30.074-72.534-85.391-134.02-155.02-170.36-49.103-26.142-104.68-40.464-160.46-39.965z" fill="none" stroke="#5a5a5a" stroke-width=".76488"/>
   <path d="m353.43 285.71c-122.52-0.17843-241.91 72.852-296.95 182.04-51.568 99.053-49.888 224.51 6.5558 321.06 48.224 85.32 135.18 147.85 232.01 164.8 86.602 15.817 179.4-3.2832 251.52-53.849 73.497-50.352 125.88-130.95 140.78-219.09 14.154-79.984-1.5343-165.05-44.369-233.94-39.113-64.198-100.19-114.54-170.96-140.26-37.758-14.059-78.206-21.146-118.58-20.767z" fill="none" stroke="#5a5a5a" stroke-width=".76488"/>
   <path d="m347.62 290.34c-121.69 2.0803-239.11 77.215-290.96 187.2-49.468 101.46-43.025 228.92 19.114 323.57 53.828 84.737 147.85 143.36 248.51 151.9 89.062 8.4974 181.15-20.082 248.42-79.183 68.056-58.626 111.33-145.84 114.79-235.88 4.0846-83.324-24.455-167.78-78.779-230.81-55.275-65.272-137.6-108.45-223.32-115.57-12.551-1.1579-25.168-1.4388-37.766-1.2429z" fill="none" stroke="#5a5a5a" stroke-width=".76488"/>
   <path d="m354.15 294.84c-118.06-0.37508-233.14 69.207-287.81 173.56-56.485 105.17-49.717 242.2 19.672 339.87 56.71 82.651 152.92 137.35 253.53 141.26 94.74 4.9036 191.01-33.282 255.15-103.15 61.183-65.206 94.661-156.1 87.872-245.77-5.5105-85.435-45.938-168.29-110.5-224.14-59.345-52.177-138.45-82.563-217.92-81.621z" fill="none" stroke="#5a5a5a" stroke-width=".76488"/>
   <path d="m354.15 299.43c-119.49-0.36786-235.48 71.852-287.91 179.05-52.039 104.13-42.595 237.25 26.357 331.29 58.885 83.05 158.89 136.12 261.29 135.59 97.492 0.81558 194.51-44.81 254.37-121.68 54.298-67.831 80.232-159 67.451-245.58-12.419-91.056-65.388-175.96-142.61-225.52-52.8-34.577-115.63-53.866-178.95-53.155z" fill="none" stroke="#5a5a5a" stroke-width=".76488"/>
   <path d="m354.22 304.02c-115.43-0.30573-227.51 67.918-280.66 170.09-57.498 108.44-45.371 250.79 32.603 346.11 62.052 78.394 162.46 125.63 262.88 120.33 98.178-3.9179 193.34-55.422 248.35-136.82 50.946-73.032 69.58-168.32 48.172-254.98-20.883-88.13-80.589-166.45-161.23-207.8-46.059-24.323-97.964-37.482-150.11-36.929z" fill="none" stroke="#5a5a5a" stroke-width=".76488"/>
   <path d="m354.29 308.61c-113.57-0.32829-223.96 66.787-276.46 167.13-57.096 107.29-44.841 248.39 32.552 342.6 59.462 74.164 154.02 120.19 249.81 117.99 93.829-1.2781 186.17-46.683 243.3-121.1 53.745-69.159 77.271-161.56 61.334-248.16-16.052-88.983-71.676-169.98-150.09-215.27-48.392-28.089-104.36-43.758-160.45-43.184z" fill="none" stroke="#5a5a5a" stroke-width=".76488"/>
   <path d="m354.36 313.2c-115.09-0.3431-226.81 69.617-276.79 173.1-50.666 103.32-38.089 235.63 33.791 326.01 61.2 78.318 161.46 125.45 261.26 119.01 100.67-5.4341 197.4-62.65 248.27-149.69 45.83-76.287 57.528-173.47 27.966-257.99-27.619-81.454-89.541-150.59-168.83-184.29-39.496-17.301-82.475-26.564-125.67-26.154z" fill="none" stroke="#5a5a5a" stroke-width=".76488"/>
   <path d="m350.92 317.76c-117.72 1.186-230.86 76.578-275.96 185.33-44.362 105.07-25.232 235.37 51.61 320.3 64.211 72.836 164.48 113.6 261.58 102.06 97.321-10.401 188.7-69.937 234.81-156.62 45.016-81.93 50.423-185.3 11.043-270.53-33.261-74.346-96.566-134.73-173.7-161.94-34.917-12.834-72.075-19.208-109.38-18.596z" fill="none" stroke="#5a5a5a" stroke-width=".76488"/>
   <path d="m353.12 322.33c-114.74 0.25484-225.68 72.524-271.77 177.33-41.88 94.643-31.368 211.21 28.707 295.7 57.994 82.275 159.33 132.55 260.49 127.02 100.97-4.9521 197.94-63.994 246.8-152.58 45.802-81.431 51.622-184.89 12.418-270.04-33.974-75.106-98.926-135.71-177.52-161.42-31.822-10.756-65.44-16.364-99.118-16.004z" fill="none" stroke="#5a5a5a" stroke-width=".76488"/>
   <path d="m353.19 326.92c-113.01 0.29397-222.16 71.391-267.64 174.48-44.845 101.15-28.527 227.78 44.221 311.89 62.789 73.769 163.3 115.02 260.07 102.87 100.88-11.9 194.01-78.14 234.98-171.29 38.35-84.549 35.212-187.95-12.118-268.44-38.874-68.163-105.24-120.46-181.52-139.63-25.388-6.7389-51.68-10.134-77.999-9.879z" fill="none" stroke="#5a5a5a" stroke-width=".76488"/>
   <path d="m353.26 331.51c-112.95 0.3103-222.04 72.404-265.61 176.59-42.16 100.05-24.157 224.02 48.29 305.36 63.841 72.893 165.84 112.3 262.41 96.958 97.132-14.64 185.6-80.494 224.09-171.26 35.967-82.819 31.943-183.08-13.989-261.18-39.331-67.991-106.26-119.96-183.1-137.98-23.544-5.7144-47.798-8.7317-72.087-8.4764z" fill="none" stroke="#5a5a5a" stroke-width=".76488"/>
   <path d="m353.33 336.09c-108.51 0.30944-213.42 67.909-258.29 166.48-46.21 101.11-28.088 229.6 47.661 311.62 63.981 70.358 164.29 107.37 258.71 91.086 95.11-15.599 181.16-81.279 218-170.71 37.491-88.409 28.143-196.44-28.014-274.88-43.03-62.037-111.12-106.96-186.08-119.23-17.139-3.0141-34.551-4.5379-51.988-4.3742z" fill="none" stroke="#5a5a5a" stroke-width=".76488"/>
   <path d="m350.87 340.71c-109.42 1.3593-214.49 72.099-255.76 173.19-39.241 95.823-22.03 213.35 46.135 291.84 63.329 73.395 166.17 112.16 262.38 94.558 96.561-16.957 182.63-86.176 216.06-178.78 33.319-89.089 19.268-195.49-40.188-270.38-47.854-62.467-122.67-104.26-201.66-109.54-8.9633-0.76338-17.969-1.0032-26.962-0.8844z" fill="none" stroke="#5a5a5a" stroke-width=".76488"/>
   <path d="m350.94 345.3c-109.58 1.3685-214.65 73.431-253.82 175.89-36.982 96.434-16.662 213.69 54.475 289.23 64.159 68.914 164.87 103.53 257.76 84.137 93.102-18.599 175.36-87.152 207-177.07 31.968-88.177 16.848-193.18-42.523-266.35-50.104-63.45-128.6-104.35-209.96-105.72-4.3082-0.15174-8.6215-0.16684-12.932-0.11545z" fill="none" stroke="#5a5a5a" stroke-width=".76488"/>
   <path d="m355.92 349.86c-106.93-0.76443-210.68 67.54-251.82 166.21-39.063 93.901-21.573 209.68 46.02 285.91 62.145 70.484 162.1 106.67 255.01 88.783 96.861-18.057 182.12-91.283 210.74-186.08 27.408-87.607 8.5715-189.6-52.291-258.9-51.139-59.629-128.56-96.908-207.67-95.921z" fill="none" stroke="#5a5a5a" stroke-width=".76488"/>
   <path d="m355.99 354.45c-106.59-0.84048-209.99 68.33-249.28 167.37-37.841 95.295-16.918 212.56 55.071 285.99 61.325 63.435 154.74 94.952 241.95 78.594 94.05-17.347 177.33-87.874 206.63-179.36 28.732-87.515 10.178-190.33-51.35-259.52-50.046-57.711-125.88-94.082-203.03-93.069z" fill="none" stroke="#5a5a5a" stroke-width=".76488"/>
   <path d="m356.06 359.04c-110.28-0.96274-217.33 74.7-250.69 180.15-28.914 89.622-7.5175 194.84 57.557 263.26 62.105 65.794 159.58 97.744 248.56 77.707 84.596-18.765 158.69-80.658 190.06-161.87 34.093-87.893 17.663-194.57-44.42-266.06-49.464-57.706-124.42-94.186-201.07-93.196z" fill="none" stroke="#5a5a5a" stroke-width=".76488"/>
   <path d="m356.13 363.63c-101.13-0.85492-199.29 63.582-238.83 156.54-40.733 96.034-18.116 216.7 58.374 288.6 61.01 58.152 151.62 85.433 234.55 67.021 90.93-19.944 169.64-91.359 194.49-181.49 23.907-84.349 3.177-181.17-56.769-245.55-48.607-52.871-119.4-86.055-191.82-85.117z" fill="none" stroke="#5a5a5a" stroke-width=".76488"/>
   <path d="m356.2 368.22c-103.37-0.89-203.42 67.637-238.98 164.56-31.93 86.967-13.187 191.38 49.285 260.17 60.16 65.993 156.34 97.873 243.86 78.153 90.6-20.334 168.69-92.874 191.44-183.48 21.451-82.929-0.42425-177.1-60.293-239.08-47.649-49.939-115.73-81.248-185.31-80.33z" fill="none" stroke="#5a5a5a" stroke-width=".76488"/>
   <path d="m356.27 372.81c-103.19-0.94746-203.08 68.696-236.46 166.4-30.778 89.797-7.4334 197.01 61.904 262.7 61.858 59.169 155.18 84.938 238.21 62.097 82.327-22.496 151.8-88.271 175.61-170.56 24.09-83.185 2.9668-179.29-57.485-241.92-46.75-48.8-113.59-79.634-181.78-78.711z" fill="none" stroke="#5a5a5a" stroke-width=".76488"/>
   <path d="m356.35 377.4c-99.433-0.93174-195.61 64.812-230.24 157.85-32.491 87.34-11.501 193.23 54.719 259.39 60.402 60.744 154.5 87.851 237.88 64.919 81.342-22.093 150.2-87.793 172.93-169.3 22.681-80.711 2.243-172.94-55.502-234.08-45.996-48.777-112.15-79.651-179.79-78.783z" fill="none" stroke="#5a5a5a" stroke-width=".76488"/>
   <path d="m356.39 381.99c-98.445-0.86798-193.38 64.535-226.75 157-31.317 86.726-9.2077 191.23 57.5 255.44 59.676 57.778 150.16 82.705 230.66 60.617 79.853-21.73 147.13-86.306 169.52-166.24 22.068-78.657 2.1631-168.88-53.805-228.72-45.263-48.353-110.43-78.909-177.12-78.09z" fill="none" stroke="#5a5a5a" stroke-width=".76488"/>
   <path d="m356.42 386.58c-100.85-1.0665-198.55 69.635-226.7 166.9-25.493 86.423 1.0812 187.35 69.946 246.21 59.429 51.539 145.4 72.188 221.29 49.691 76.11-22.318 140.01-84.504 161.75-161.17 22.189-77.898 2.0832-167.35-53.733-226.31-44.283-46.537-107.71-76.13-172.55-75.317z" fill="none" stroke="#5a5a5a" stroke-width=".76488"/>
   <path d="m356.49 391.17c-98.291-1.006-193.23 67.227-221.74 161.4-25.232 82.469-1.7643 179 61.565 237.99 58.044 54.317 145.09 76.952 221.98 54.832 78.777-22.533 144.45-88.759 162.78-169.28 18.342-78.946-6.5421-167.8-67.066-222.45-42.449-38.96-99.32-63.181-157.52-62.49z" fill="none" stroke="#5a5a5a" stroke-width=".76488"/>
   <path d="m356.56 395.76c-94.579-0.96588-186.07 63.355-215.89 153.33-27.729 83.381-3.562 182.88 62.505 241.51 58.136 52.052 144.03 72.374 218.88 48.875 77.654-24.107 141.23-91.999 156.27-172.46 14.568-75.251-10.223-158.06-67.191-209.81-41.768-38.324-97.592-62.149-154.58-61.453z" fill="none" stroke="#5a5a5a" stroke-width=".76488"/>
   <path d="m356.63 400.34c-85.874-0.81203-168.9 52.904-204.15 130.99-37.332 83.452-16.928 189.69 49.716 252.14 56.89 53.731 143.26 75.058 218.4 51.677 74.81-23.287 136.07-87.629 152.38-164.71 16.527-76.717-9.4485-162.42-69.303-213.78-40.406-35.18-93.112-56.958-147.04-56.318z" fill="none" stroke="#5a5a5a" stroke-width=".76488"/>
   <path d="m352.31 404.93c-91.55 1.0044-179.34 65.556-205.01 153.76-23.17 78.658 0.43469 170.09 61.86 224.99 56.888 51.128 142.29 70.306 215.22 45.439 74.915-25.366 134.8-93.197 146.4-172 10.882-70.603-13.858-146.44-67.118-194.47-41.053-36.804-95.682-59.467-151.35-57.725z" fill="none" stroke="#5a5a5a" stroke-width=".76488"/>
   <path d="m355.01 409.45c-90.752-0.0649-177.97 63.443-203.41 150.87-22.555 76.837 0.63619 166.25 60.641 219.98 55.092 49.533 137.14 68.209 208.02 45.391 64.288-20.941 117.29-73.074 138.46-137.45 25.397-77.618 1.4636-169.89-60.048-223.95-39.411-34.362-90.983-55.756-143.66-54.838z" fill="none" stroke="#5a5a5a" stroke-width=".76488"/>
   <path d="m353.55 444.01c-59.927 0.19242-118.15 33.338-149.43 84.528-29.587 47.381-34.943 109.53-13.359 161.15 20.457 50.286 64.824 90.128 117.24 104.35 52.87 14.818 112.47 3.7396 155.86-29.943 43.391-32.827 70.497-86.457 70.265-141.19 0.44242-54.482-25.675-108.28-68.957-141.47-31.641-24.552-71.517-38.129-111.62-37.418zm1.8166 106.99c32.484-0.70821 63.264 23.601 69.963 55.43 6.8987 29.342-6.8831 62.048-33.025 77.065-25.348 15.319-60.217 12.718-82.544-6.863-20.668-17.356-30.166-47.046-22.731-73.19 8.1493-30.116 36.926-52.731 68.337-52.442z" fill="#f7f706" stroke="#5a5a5a" stroke-width="2.2464"/>
   <path transform="translate(54.286 57.143)" d="m334.29 589.51-66.908-24.106-57.789 41.451 2.2503-71.083-57.28-42.152 68.299-19.826 22.388-67.502 39.961 58.83 71.117 0.43272-43.602 56.184z" clip-path="url(#c)" fill="#f70f06" stroke="#5a5a5a" stroke-width="2.416"/>
   <path transform="matrix(.50734 0 0 .50734 332.69 308.14)" d="m334.29 589.51-66.908-24.106-57.789 41.451 2.2503-71.083-57.28-42.152 68.299-19.826 22.388-67.502 39.961 58.83 71.117 0.43272-43.602 56.184z" fill="#f70f06" stroke="#5a5a5a" stroke-width="2.416"/>
   <path transform="matrix(.70324 0 0 .70324 168.37 414.5)" d="m334.29 589.51-66.908-24.106-57.789 41.451 2.2503-71.083-57.28-42.152 68.299-19.826 22.388-67.502 39.961 58.83 71.117 0.43272-43.602 56.184z" clip-path="url(#b)" fill="#f70f06" stroke="#5a5a5a" stroke-width="2.416"/>
   <path d="m3.5804 648.79c4.0567 215.23 210.4 342.43 367.31 324.79-195.43 21.217-361.52-162.94-367.31-324.79z" fill="#fff"/>
   <path d="m159.29 624.5c2.0446 131.43 103.94 199.18 183.03 188.41-98.498 12.956-180.11-89.574-183.03-188.41z" fill="#fff"/>
  </g>
  <path d="m650.41 789.92c-74.673 110.47-365.72 223.53-503.64 130.3s-226.49-425.94-24.535-553.46c361.45-71.661 629.78 347.9 528.18 423.17z" fill="#000101" opacity=".23894"/>
  <path d="m202.98 619.87c14.229 53.526 36.288 117.66 100.32 146.15-52.909-9.3098-103.42-65.278-100.32-146.15z" fill="#f3ede9" opacity=".26549"/>
 </g>
</svg>
